<svg xmlns="http://www.w3.org/2000/svg" fill="none" viewBox="0 0 24 24" id="leftarrow">
  <path fill="#a34dee" d="M12 1.25C17.9371 1.25 22.75 6.06294 22.75 12C22.75 17.9371 17.9371 22.75 12 22.75C6.06294 22.75 1.25 17.9371 1.25 12C1.25 6.06294 6.06294 1.25 12 1.25Z" class="coloree4d4d svgShape"></path>
  <path fill="#efecf1" d="M12.4697 7.96966C12.6842 7.75516 13.0068 7.691 13.287 7.80708C13.5673 7.92317 13.75 8.19664 13.75 8.49999V15.5C13.75 15.8033 13.5673 16.0768 13.287 16.1929C13.0068 16.309 12.6842 16.2448 12.4697 16.0303L8.96967 12.5303C8.67678 12.2374 8.67678 11.7626 8.96967 11.4697L12.4697 7.96966Z" class="coloreceff1 svgShape"></path>
  <path fill="#8901ff" fill-rule="evenodd" d="M1.25 12H22.75C22.75 17.9371 17.9371 22.75 12 22.75C6.06294 22.75 1.25 17.9371 1.25 12Z" clip-rule="evenodd" class="colord64545 svgShape"></path>
  <path fill="#d6cfdc" fill-rule="evenodd" d="M8.75 12H13.75V15.5C13.75 15.8033 13.5673 16.0768 13.287 16.1929C13.0068 16.309 12.6842 16.2448 12.4697 16.0303L8.96967 12.5303C8.82323 12.3839 8.75 12.1919 8.75 12Z" clip-rule="evenodd" class="colorcfd8dc svgShape"></path>
</svg>
